<?xml version="1.0" standalone="no"?><!DOCTYPE svg PUBLIC "-//W3C//DTD SVG 1.1//EN" "http://www.w3.org/Graphics/SVG/1.1/DTD/svg11.dtd"><svg t="1559571967756" class="icon" style="" viewBox="0 0 1024 1024" version="1.1" xmlns="http://www.w3.org/2000/svg" p-id="2912" xmlns:xlink="http://www.w3.org/1999/xlink" width="200" height="200"><defs><style type="text/css"></style></defs><path d="M469.333333 725.333333 170.666667 725.333333C123.733333 725.333333 85.333333 686.933333 85.333333 640L85.333333 128C85.333333 81.066667 123.733333 42.666667 170.666667 42.666667L682.666667 42.666667 682.666667 128 170.666667 128 170.666667 640 469.333333 640 469.333333 554.666667 640 682.666667 469.333333 810.666667 469.333333 725.333333M810.666667 896 810.666667 298.666667 341.333333 298.666667 341.333333 554.666667 256 554.666667 256 298.666667C256 251.733333 294.4 213.333333 341.333333 213.333333L810.666667 213.333333C857.6 213.333333 896 251.733333 896 298.666667L896 896C896 942.933333 857.6 981.333333 810.666667 981.333333L341.333333 981.333333C294.4 981.333333 256 942.933333 256 896L256 810.666667 341.333333 810.666667 341.333333 896 810.666667 896Z" p-id="2913"></path></svg>