<?xml version="1.0" standalone="no"?><!DOCTYPE svg PUBLIC "-//W3C//DTD SVG 1.1//EN" "http://www.w3.org/Graphics/SVG/1.1/DTD/svg11.dtd"><svg t="1559572097508" class="icon" style="" viewBox="0 0 1024 1024" version="1.1" xmlns="http://www.w3.org/2000/svg" p-id="3994" xmlns:xlink="http://www.w3.org/1999/xlink" width="200" height="200"><defs><style type="text/css"></style></defs><path d="M809.983978 854.016013l0-683.989283-84.01066 0 0 127.999991-427.989302 0 0-127.999991-84.01066 0 0 683.989283 596.010623 0zM512 86.016069q-18.005332 0-29.994664 11.989332t-11.989332 29.994664 11.989332 29.994664 29.994664 11.989332 29.994664-11.989332 11.989332-29.994664-11.989332-29.994664-29.994664-11.989332zM809.983978 86.016069q34.005331 0 59.989329 25.002665t25.983998 59.007996l0 683.989283q0 34.005331-25.983998 59.007996t-59.989329 25.002665l-596.010623 0q-34.005331 0-59.989329-25.002665t-25.983998-59.007996l0-683.989283q0-34.005331 25.983998-59.007996t59.989329-25.002665l178.00532 0q13.994666-38.015997 45.994663-61.994662t73.983995-24.021332 73.983995 24.021332 45.994663 61.994662l178.00532 0z" p-id="3995"></path></svg>