<?xml version="1.0" standalone="no"?><!DOCTYPE svg PUBLIC "-//W3C//DTD SVG 1.1//EN" "http://www.w3.org/Graphics/SVG/1.1/DTD/svg11.dtd"><svg t="1559485361755" class="icon" style="" viewBox="0 0 1024 1024" version="1.1" xmlns="http://www.w3.org/2000/svg" p-id="2753" xmlns:xlink="http://www.w3.org/1999/xlink" width="200" height="200"><defs><style type="text/css"></style></defs><path d="M490.666667 384c-58.88 0-106.666667 47.786667-106.666667 106.666667s47.786667 106.666667 106.666667 106.666666 106.666667-47.786667 106.666666-106.666666-47.786667-106.666667-106.666666-106.666667zM853.333333 170.666667H170.666667c-47.146667 0-85.333333 38.186667-85.333334 85.333333v512c0 47.146667 38.186667 85.333333 85.333334 85.333333h682.666666c47.146667 0 85.333333-38.186667 85.333334-85.333333V256c0-47.146667-38.186667-85.333333-85.333334-85.333333z m-136.746666 606.08l-123.946667-123.946667c-29.653333 18.773333-64.426667 29.866667-101.973333 29.866667a192 192 0 1 1 192-192c0 37.546667-11.093333 72.32-29.866667 101.76l124.16 123.733333-60.373333 60.586667z" p-id="2754"></path></svg>